<svg width="60" height="61" viewBox="0 0 60 61" fill="none" xmlns="http://www.w3.org/2000/svg">
<path d="M57.5 10.1699H11.6667C9.49396 10.1699 7.64135 11.5634 6.95333 13.5033H2.5C1.11927 13.5033 0 14.6225 0 16.0033V44.3366C0 47.5583 2.61167 50.1699 5.83333 50.1699H57.5C58.8807 50.1699 60 49.0507 60 47.6699V12.6699C60 11.2892 58.8807 10.1699 57.5 10.1699ZM5 44.3366V18.5033H6.66667V44.3366C6.66667 44.7961 6.29281 45.1699 5.83333 45.1699C5.37385 45.1699 5 44.7961 5 44.3366ZM55 45.1699H11.6065C11.6454 44.8976 11.6667 44.6196 11.6667 44.3366V15.1699H55V45.1699ZM17.9167 32.6699H32.0833C32.7736 32.6699 33.3333 32.1102 33.3333 31.4199V21.4199C33.3333 20.7296 32.7736 20.1699 32.0833 20.1699H17.9167C17.2264 20.1699 16.6667 20.7296 16.6667 21.4199V31.4199C16.6667 32.1102 17.2264 32.6699 17.9167 32.6699ZM20.8333 24.3366H29.1667V28.5033H20.8333V24.3366ZM16.6667 38.9199V36.4199C16.6667 35.7296 17.2264 35.1699 17.9167 35.1699H32.0833C32.7736 35.1699 33.3333 35.7296 33.3333 36.4199V38.9199C33.3333 39.6102 32.7736 40.1699 32.0833 40.1699H17.9167C17.2264 40.1699 16.6667 39.6102 16.6667 38.9199ZM36.6667 38.9199V36.4199C36.6667 35.7296 37.2264 35.1699 37.9167 35.1699H48.75C49.4403 35.1699 50 35.7296 50 36.4199V38.9199C50 39.6102 49.4403 40.1699 48.75 40.1699H37.9167C37.2264 40.1699 36.6667 39.6102 36.6667 38.9199ZM36.6667 23.9199V21.4199C36.6667 20.7296 37.2264 20.1699 37.9167 20.1699H48.75C49.4403 20.1699 50 20.7296 50 21.4199V23.9199C50 24.6102 49.4403 25.1699 48.75 25.1699H37.9167C37.2264 25.1699 36.6667 24.6102 36.6667 23.9199ZM36.6667 31.4199V28.9199C36.6667 28.2296 37.2264 27.6699 37.9167 27.6699H48.75C49.4403 27.6699 50 28.2296 50 28.9199V31.4199C50 32.1102 49.4403 32.6699 48.75 32.6699H37.9167C37.2264 32.6699 36.6667 32.1102 36.6667 31.4199Z" fill="#EFB621" fill-opacity="0.47"/>
</svg>
