<svg width="60" height="61" viewBox="0 0 60 61" fill="none" xmlns="http://www.w3.org/2000/svg">
<path d="M9 27.7798C12.3094 27.7798 15 25.0892 15 21.7798C15 18.4704 12.3094 15.7798 9 15.7798C5.69063 15.7798 3 18.4704 3 21.7798C3 25.0892 5.69063 27.7798 9 27.7798ZM51 27.7798C54.3094 27.7798 57 25.0892 57 21.7798C57 18.4704 54.3094 15.7798 51 15.7798C47.6906 15.7798 45 18.4704 45 21.7798C45 25.0892 47.6906 27.7798 51 27.7798ZM54 30.7798H48C46.35 30.7798 44.8594 31.4454 43.7719 32.5235C47.55 34.5954 50.2313 38.336 50.8125 42.7798H57C58.6594 42.7798 60 41.4392 60 39.7798V36.7798C60 33.4704 57.3094 30.7798 54 30.7798ZM30 30.7798C35.8031 30.7798 40.5 26.0829 40.5 20.2798C40.5 14.4767 35.8031 9.77979 30 9.77979C24.1969 9.77979 19.5 14.4767 19.5 20.2798C19.5 26.0829 24.1969 30.7798 30 30.7798ZM37.2 33.7798H36.4219C34.4719 34.7173 32.3063 35.2798 30 35.2798C27.6938 35.2798 25.5375 34.7173 23.5781 33.7798H22.8C16.8375 33.7798 12 38.6173 12 44.5798V47.2798C12 49.7642 14.0156 51.7798 16.5 51.7798H43.5C45.9844 51.7798 48 49.7642 48 47.2798V44.5798C48 38.6173 43.1625 33.7798 37.2 33.7798ZM16.2281 32.5235C15.1406 31.4454 13.65 30.7798 12 30.7798H6C2.69063 30.7798 0 33.4704 0 36.7798V39.7798C0 41.4392 1.34062 42.7798 3 42.7798H9.17813C9.76875 38.336 12.45 34.5954 16.2281 32.5235Z" fill="#EFB621" fill-opacity="0.47"/>
</svg>
