<svg width="60" height="61" viewBox="0 0 60 61" fill="none" xmlns="http://www.w3.org/2000/svg">
<path d="M11.9999 15.3899C14.4843 15.3899 16.4999 13.3743 16.4999 10.8899C16.4999 8.40552 14.4843 6.38989 11.9999 6.38989C9.51556 6.38989 7.49994 8.40552 7.49994 10.8899C7.49994 13.3743 9.51556 15.3899 11.9999 15.3899ZM47.9999 15.3899C50.4843 15.3899 52.4999 13.3743 52.4999 10.8899C52.4999 8.40552 50.4843 6.38989 47.9999 6.38989C45.5156 6.38989 43.4999 8.40552 43.4999 10.8899C43.4999 13.3743 45.5156 15.3899 47.9999 15.3899ZM59.7843 50.2743L55.6593 39.9618L51.8062 44.3118L51.6187 46.018L54.2156 52.5055C54.6843 53.6774 55.8093 54.3899 56.9999 54.3899C57.3749 54.3899 57.7499 54.3243 58.1156 54.1743C59.6531 53.5555 60.4031 51.8118 59.7843 50.2743ZM56.5781 30.6055L54.8437 23.0868C54.4124 21.2118 53.0999 19.6368 51.3281 18.8774C49.5937 18.1274 47.6718 18.2493 46.0687 19.1868C43.9406 20.443 42.3468 22.4211 41.5593 24.7555L40.4999 27.9336L38.9999 28.8899V19.8899C38.9999 19.0649 38.3249 18.3899 37.4999 18.3899H22.4999C21.6749 18.3899 20.9999 19.0649 20.9999 19.8899V28.8899L19.4906 27.9336L18.4312 24.7555C17.6531 22.4118 16.0499 20.443 13.9218 19.1868C12.3093 18.2493 10.3968 18.1274 8.66244 18.8774C6.89056 19.6368 5.57806 21.2118 5.14681 23.0868L3.42181 30.6055C2.99056 32.4805 3.48744 34.468 4.77181 35.9211L11.0718 43.0368L12.0187 51.718C12.1874 53.2461 13.4812 54.3899 14.9999 54.3899C15.1124 54.3899 15.2156 54.3805 15.3281 54.3711C16.9781 54.193 18.1593 52.7118 17.9812 51.0618L17.0343 42.3618C16.8937 41.143 16.3874 40.0086 15.5718 39.0805L11.5124 34.4868L13.1624 27.8961L13.7999 29.8086C14.1843 30.9805 14.9156 32.0024 16.0968 32.8649L20.8874 35.9118C21.3187 36.1836 22.0218 36.343 22.4999 36.3805H37.4999C37.9781 36.343 38.6812 36.1836 39.1124 35.9118L43.9031 32.8649C45.0843 32.0024 45.8156 30.9899 46.1999 29.8086L46.8374 27.8961L48.4874 34.4868L44.4281 39.0805C43.6124 40.0086 43.1062 41.143 42.9656 42.3618L42.0187 51.0618C41.8406 52.7118 43.0312 54.193 44.6718 54.3711C44.7843 54.3805 44.8874 54.3899 44.9999 54.3899C46.5093 54.3899 47.8124 53.2555 47.9812 51.718L48.9281 43.0368L55.2281 35.9211C56.5031 34.468 57.0093 32.4805 56.5781 30.6055ZM4.34056 39.9618L0.215564 50.2743C-0.403186 51.8118 0.346814 53.5555 1.88431 54.1743C3.45931 54.793 5.17494 54.0149 5.78431 52.5055L8.38119 46.018L8.19369 44.3118L4.34056 39.9618Z" fill="#EFB621" fill-opacity="0.58"/>
</svg>
